<svg width="86" height="67" viewBox="0 0 86 67" fill="none" xmlns="http://www.w3.org/2000/svg">
<path d="M60.8123 66.8869H46.1886L41.7729 53.7241H19.0413L14.6256 66.8869H0.00195312L24.1091 1.08203H36.7052L60.8123 66.8869ZM30.4792 21.4226H30.3343L23.6737 40.5651H37.1391L30.4792 21.4226Z" fill="#1F1F1F"/>
<path d="M80.2927 8.32462C80.2927 12.9221 76.7089 16.6485 72.2864 16.6485C67.8639 16.6485 64.2793 12.9221 64.2793 8.32462C64.2793 3.72554 67.8639 1.21328e-07 72.2864 1.21328e-07C76.7089 -0.000776356 80.2927 3.72554 80.2927 8.32462ZM65.3472 66.8873H78.8439V25.9833H65.3472V66.8873Z" fill="#1F1F1F"/>
<path d="M0 66.8866H14.6236C15.5892 66.0806 30.4055 29.8509 85.3416 19.8639C85.3416 19.8639 35.1417 10.6083 0 66.8866Z" fill="#D1D1F7"/>
<path d="M85.3418 19.8633C30.5386 21.5366 7.63086 66.886 7.63086 66.886H14.6238C15.5894 66.08 30.4057 29.8503 85.3418 19.8633Z" fill="#FFEFDF"/>
</svg>
